<svg xmlns="http://www.w3.org/2000/svg" width="226.473" height="50" viewBox="0 0 226.473 50">
  <g id="Group_70" data-name="Group 70" transform="translate(-527 -4825)">
    <path id="Path_1" data-name="Path 1" d="M166.7,214.075a24.923,24.923,0,0,0-19.159,8.961,24.976,24.976,0,0,0,38.318,0A24.921,24.921,0,0,0,166.7,214.075Z" transform="translate(385.299 4643.011)" fill="#fff"/>
    <path id="Path_2" data-name="Path 2" d="M165.346,198.075a24.993,24.993,0,0,0-22.812,14.778,25,25,0,0,0,3,5.014,24.935,24.935,0,0,1,39.619,0,24.961,24.961,0,0,0,3-5.014A24.992,24.992,0,0,0,165.346,198.075Z" transform="translate(386.655 4647.342)" fill="#fff"/>
    <path id="Path_3" data-name="Path 3" d="M164.534,177.161a24.985,24.985,0,0,1,24.721,21.459,25,25,0,1,0-49.441,0A24.984,24.984,0,0,1,164.534,177.161Z" transform="translate(387.467 4654.921)" fill="#fff"/>
    <path id="Path_4" data-name="Path 4" d="M164.687,182.076A24.98,24.98,0,0,0,140.1,202.739a24.8,24.8,0,0,0,1.422,4.963,24.985,24.985,0,0,1,46.331,0,24.754,24.754,0,0,0,1.422-4.963A24.978,24.978,0,0,0,164.687,182.076Z" transform="translate(387.314 4651.673)" fill="#fff"/>
    <path id="Path_5" data-name="Path 5" d="M166.461,211.789a24.933,24.933,0,0,0-19.81,9.791c.216.281.423.567.651.838a24.96,24.96,0,0,1,38.318,0c.228-.271.435-.557.651-.838A24.931,24.931,0,0,0,166.461,211.789Z" transform="translate(385.54 4643.629)" fill="#ed1c24"/>
    <path id="Path_6" data-name="Path 6" d="M165.215,195.79a25,25,0,0,0-23.166,15.624c.112.277.232.548.354.82a25,25,0,0,1,45.624,0c.122-.272.241-.543.354-.82A25,25,0,0,0,165.215,195.79Z" transform="translate(386.786 4647.961)" fill="#ed1c24"/>
    <path id="Path_7" data-name="Path 7" d="M164.638,181.457a24.978,24.978,0,0,1,24.587,20.663c.052-.288.092-.58.133-.871a24.969,24.969,0,0,0-49.441,0c.041.292.082.583.133.871A24.98,24.98,0,0,1,164.638,181.457Z" transform="translate(387.363 4652.292)" fill="#ed1c24"/>
    <g id="Group_13" data-name="Group 13" transform="translate(586.154 4839.243)">
      <g id="Group_2" data-name="Group 2">
        <path id="Path_8" data-name="Path 8" d="M225.972,194.54v3.04l.911-.114a.934.934,0,0,1,.148-.011.95.95,0,0,1,.933.6,1.58,1.58,0,0,1,.137.671,1.042,1.042,0,0,1-.99,1.161l-1.138.148v3.415l.307-.125.4-.16a3.182,3.182,0,0,1,1.058-.308.965.965,0,0,1,.865.433,1.126,1.126,0,0,1,.194.626,1.2,1.2,0,0,1-.694,1.013,29.1,29.1,0,0,1-4.952,2.4,3.715,3.715,0,0,1-1.206.308,1.174,1.174,0,0,1-1.127-.739,1.476,1.476,0,0,1-.171-.661,1.176,1.176,0,0,1,.592-1.047,5.076,5.076,0,0,1,.808-.3q.558-.16,1.389-.467v-4.051l-1.2.158a.935.935,0,0,1-.16.012.975.975,0,0,1-.751-.308,1.269,1.269,0,0,1-.33-.922,1.067,1.067,0,0,1,.99-1.207l1.446-.193V194.8l-1.446.148h-.125a.955.955,0,0,1-.763-.33,1.4,1.4,0,0,1-.33-.979q0-1.138,1.013-1.241l5.191-.512h.159a.963.963,0,0,1,.8.376,1.452,1.452,0,0,1,.284.922,1.067,1.067,0,0,1-1,1.23Zm4.837,6.841q1.162,0,1.161,1.321a10.262,10.262,0,0,1-1.855,6.556,7.164,7.164,0,0,1-1.252,1.207,1.62,1.62,0,0,1-.922.376.854.854,0,0,1-.557-.2.936.936,0,0,1-.365-.762,1.1,1.1,0,0,1,.365-.786,7.267,7.267,0,0,0,1.98-3.9,16.079,16.079,0,0,0,.2-2.686Q229.581,201.382,230.81,201.382Zm3.825-6.284a15.433,15.433,0,0,1-2.664,3.324q1.663-.16,5.088-.775l-.444-.591a1.52,1.52,0,0,1-.376-.82.859.859,0,0,1,.842-.853,1.686,1.686,0,0,1,.968.432,13.574,13.574,0,0,1,2.641,2.641,1.6,1.6,0,0,1,.365.944,1.143,1.143,0,0,1-.422.877,1.258,1.258,0,0,1-.877.33,1.459,1.459,0,0,1-1.263-.866q-.114-.182-.2-.341l-.182.045a41.577,41.577,0,0,1-4.291.82,31.28,31.28,0,0,1-3.335.387,1.178,1.178,0,0,1-1.116-.581,2.144,2.144,0,0,1-.307-.979,1.725,1.725,0,0,1,.558-.979,19.166,19.166,0,0,0,2.117-2.755l-2.277.217c-.076.007-.129.012-.159.012a.95.95,0,0,1-.888-.445,1.181,1.181,0,0,1-.171-.659q0-1.1.956-1.2l3.87-.353v-2.095a.987.987,0,0,1,.512-.9,1.533,1.533,0,0,1,.842-.239,1.4,1.4,0,0,1,1.036.4,1,1,0,0,1,.3.74V192.7l4.212-.387h.137a.971.971,0,0,1,.751.3,1.187,1.187,0,0,1,.33.877.964.964,0,0,1-.956,1.092Zm.671,7.046v6.671a.891.891,0,0,1-.307.717,1.234,1.234,0,0,1-.854.284,1.137,1.137,0,0,1-1-.455.885.885,0,0,1-.171-.546v-6.671a.92.92,0,0,1,.455-.831,1.323,1.323,0,0,1,.717-.193,1.186,1.186,0,0,1,.911.353A.956.956,0,0,1,235.306,202.144Zm4.1,6.113c.069.007.115.012.137.012q.66,0,.853-.285a4.471,4.471,0,0,0,.285-1.957q.022-.842.705-.843c.448,0,.713.293.8.877a18.661,18.661,0,0,1,.2,2.585,1.606,1.606,0,0,1-1.025,1.73,7.935,7.935,0,0,1-2.265.228,3.352,3.352,0,0,1-2.026-.432,2.245,2.245,0,0,1-.535-1.752v-6.761a.951.951,0,0,1,.217-.626,1.324,1.324,0,0,1,2.014.091.992.992,0,0,1,.148.535V207.7Q238.914,208.246,239.4,208.257Z" transform="translate(-220.645 -189.634)" fill="#fff"/>
        <path id="Path_9" data-name="Path 9" d="M258.05,194.459v3.073l1.047-.137a.808.808,0,0,1,.148-.011.951.951,0,0,1,.933.6,1.584,1.584,0,0,1,.137.672,1.01,1.01,0,0,1-.956,1.138l-1.309.171v2.96q.284-.138.934-.5a1.7,1.7,0,0,1,.819-.239.842.842,0,0,1,.751.376,1.183,1.183,0,0,1,.194.661,1.212,1.212,0,0,1-.6.933,33.279,33.279,0,0,1-4.724,2.766,4.461,4.461,0,0,1-1.616.557,1.145,1.145,0,0,1-1.025-.637,1.525,1.525,0,0,1-.216-.74,1.17,1.17,0,0,1,.694-1.092,5.963,5.963,0,0,1,.637-.251q.66-.238,1.639-.659v-3.8l-1.308.171a1.15,1.15,0,0,1-.171.012.96.96,0,0,1-.752-.319,1.3,1.3,0,0,1-.3-.9,1.041,1.041,0,0,1,.967-1.173l1.559-.216v-3.142l-1.582.171h-.125a.974.974,0,0,1-.808-.376,1.435,1.435,0,0,1-.284-.911,1.062,1.062,0,0,1,1-1.218l5.6-.6a1.588,1.588,0,0,1,.159-.011.893.893,0,0,1,.808.409,1.449,1.449,0,0,1,.262.888,1.048,1.048,0,0,1-1,1.207Zm5.486,8.582a.814.814,0,0,1,.729.387.9.9,0,0,1,.171.512,1.345,1.345,0,0,1-.319.8,21.329,21.329,0,0,1-2.516,2.618,5.317,5.317,0,0,1-.893.712,1.436,1.436,0,0,1-.7.165,1.1,1.1,0,0,1-.91-.432,1.339,1.339,0,0,1-.319-.854q0-.637.99-1.275a22.229,22.229,0,0,0,2.811-2.151A1.566,1.566,0,0,1,263.537,203.041Zm4.121-3.119q1.8-1.354,2.8-2.277a1.864,1.864,0,0,1,1.23-.569,1.238,1.238,0,0,1,.775.273,1.43,1.43,0,0,1,.626,1.172,1.4,1.4,0,0,1-.774,1.184,25.651,25.651,0,0,1-3.722,2.026,26.561,26.561,0,0,0,5.384,4.792q.75.512.75.922,0,.387-.694.592a6.932,6.932,0,0,1-1.935.341,1.5,1.5,0,0,1-1.013-.387,20.981,20.981,0,0,1-3.426-4.348v5.236q0,2.243-1.764,2.243a5.848,5.848,0,0,1-2.174-.615q-1.72-.762-1.719-1.491a.892.892,0,0,1,.068-.33.709.709,0,0,1,.729-.466,1.93,1.93,0,0,1,.443.068,5.1,5.1,0,0,0,1.241.228q.444,0,.444-.513V196.94l-3.586.33a.927.927,0,0,1-.159.012,1.029,1.029,0,0,1-.979-.535,1.49,1.49,0,0,1-.16-.717q0-1.149,1.013-1.252l3.87-.364v-3.619a1.069,1.069,0,0,1,.6-1.014,1.649,1.649,0,0,1,.763-.171,1.365,1.365,0,0,1,1.116.456,1.091,1.091,0,0,1,.25.729v3.369l4.075-.387h.147a1.055,1.055,0,0,1,1.093.785,1.735,1.735,0,0,1,.079.524,1.151,1.151,0,0,1-.524,1.036,1.2,1.2,0,0,1-.558.171l-4.314.4Zm-6.431-1.354a4.563,4.563,0,0,1,2.117.751,1.634,1.634,0,0,1,.99,1.354,1.442,1.442,0,0,1-.285.877,1.255,1.255,0,0,1-1.07.524,1.207,1.207,0,0,1-.956-.535,7.637,7.637,0,0,0-1.082-1.092,1.429,1.429,0,0,1-.615-1.036.879.879,0,0,1,.194-.524A.809.809,0,0,1,261.226,198.568Zm8.138-8.525a2.711,2.711,0,0,1,1.4.6q1.491,1.024,1.491,1.809a1.206,1.206,0,0,1-.364.842,1.307,1.307,0,0,1-.99.421,1.121,1.121,0,0,1-.99-.637,10.242,10.242,0,0,0-1.218-1.628.884.884,0,0,1-.238-.592.735.735,0,0,1,.216-.523A.9.9,0,0,1,269.365,190.042Z" transform="translate(-229.286 -189.609)" fill="#fff"/>
      </g>
      <g id="Group_4" data-name="Group 4" transform="translate(117.034 8.061)">
        <g id="Group_3" data-name="Group 3">
          <path id="Path_10" data-name="Path 10" d="M390.148,208a45.175,45.175,0,0,0,.637-4.542q0-.33-.3-.33c-.091,0-.213.008-.365.023q-.785.08-2.709.228-1.162.091-1.81.159a2.781,2.781,0,0,1-.307.023,1.085,1.085,0,0,1-.923-.445,1.313,1.313,0,0,1-.228-.785,1.1,1.1,0,0,1,.808-1.162,4.327,4.327,0,0,1,.808-.09l2.641-.2q2.947-.217,3.164-.216a1.766,1.766,0,0,1,1.685.91,1.947,1.947,0,0,1,.228.944,4.856,4.856,0,0,1-.069.649q-.057.4-.182,1.286-.2,1.446-.432,2.97l-.069.422.239-.011q2.641-.16,2.971-.182c.083-.008.14-.012.171-.012a1.061,1.061,0,0,1,.706.25,1.209,1.209,0,0,1,.432.991,1.055,1.055,0,0,1-.854,1.172q-.126.034-7.752.489-6.272.364-6.374.365a1.062,1.062,0,0,1-1.013-.57,1.405,1.405,0,0,1-.137-.637,1.16,1.16,0,0,1,.444-.979,2.329,2.329,0,0,1,1.23-.273l6.739-.4Z" transform="translate(-381.122 -200.662)" fill="#fff"/>
        </g>
      </g>
      <g id="Group_6" data-name="Group 6" transform="translate(135.794 2.096)">
        <g id="Group_5" data-name="Group 5">
          <path id="Path_11" data-name="Path 11" d="M409.782,193.791V205.4c0,.335.072.5.217.5a7.612,7.612,0,0,0,2.151-.955,26.981,26.981,0,0,0,6.67-5.077,1.461,1.461,0,0,1,1.071-.513,1.086,1.086,0,0,1,.705.262,1.07,1.07,0,0,1,.41.877,1.7,1.7,0,0,1-.4.99,22.882,22.882,0,0,1-5.874,5.338,22.5,22.5,0,0,1-4.7,2.414,3.192,3.192,0,0,1-1.047.2,2.141,2.141,0,0,1-1.685-.888,2.333,2.333,0,0,1-.455-1.5V193.791a1.176,1.176,0,0,1,.637-1.1,1.673,1.673,0,0,1,.831-.2,1.542,1.542,0,0,1,1.1.4A1.212,1.212,0,0,1,409.782,193.791Z" transform="translate(-406.846 -192.483)" fill="#fff"/>
        </g>
      </g>
      <g id="Group_8" data-name="Group 8" transform="translate(149.266 2.686)">
        <g id="Group_7" data-name="Group 7">
          <path id="Path_12" data-name="Path 12" d="M435.016,203.98a32.39,32.39,0,0,1-6.647,5.271,5.121,5.121,0,0,1-1.936.831,1.036,1.036,0,0,1-.933-.546,1.075,1.075,0,0,1-.182-.558,1.2,1.2,0,0,1,.467-.91q.114-.1.808-.546a35.865,35.865,0,0,0,5.749-4.69,22.207,22.207,0,0,0,4.45-5.873,1.98,1.98,0,0,0,.239-.661c0-.136-.076-.2-.228-.2a3.749,3.749,0,0,0-.513.057q-.671.1-5.3.444-.8.057-1.377.1c-.152.015-.266.023-.341.023a1.282,1.282,0,0,1-1.264-.683,1.484,1.484,0,0,1-.148-.672,1.2,1.2,0,0,1,.9-1.241,5.782,5.782,0,0,1,1.207-.136q3.2-.137,8.15-.672a3.39,3.39,0,0,1,.376-.023,2.2,2.2,0,0,1,1.594.581,1.729,1.729,0,0,1,.546,1.32,4.862,4.862,0,0,1-.6,1.844,27.019,27.019,0,0,1-3.449,5.247,34.906,34.906,0,0,1,5.85,4.393,2.578,2.578,0,0,1,.945,1.7,1.456,1.456,0,0,1-.444,1.047,1.429,1.429,0,0,1-1.07.478,1.508,1.508,0,0,1-1.071-.443q-.057-.057-.4-.432A59.314,59.314,0,0,0,435.016,203.98Z" transform="translate(-425.318 -193.292)" fill="#fff"/>
        </g>
      </g>
      <g id="Group_10" data-name="Group 10" transform="translate(83.589 2.084)">
        <g id="Group_9" data-name="Group 9">
          <path id="Path_13" data-name="Path 13" d="M336.172,199.015q.842,0,2.243,1.878a3.872,3.872,0,0,1,.945,2.015,1.283,1.283,0,0,1-.57,1.092,1.314,1.314,0,0,1-.808.285q-.853,0-1.2-1.025a11.164,11.164,0,0,0-1.24-2.585,1.532,1.532,0,0,1-.284-.842.718.718,0,0,1,.193-.513A.916.916,0,0,1,336.172,199.015Zm12.191-.934a1.38,1.38,0,0,1,.751.216,1.249,1.249,0,0,1,.581,1.138,11.5,11.5,0,0,1-.546,2.663,14.582,14.582,0,0,1-6.693,8.935,4.579,4.579,0,0,1-1.844.775.884.884,0,0,1-.8-.478,1.043,1.043,0,0,1-.16-.524,1.022,1.022,0,0,1,.4-.8q.114-.091,1.036-.717a12.82,12.82,0,0,0,3.142-3.187,17.014,17.014,0,0,0,2.777-6.762Q347.259,198.082,348.364,198.082Zm-7.49-.558a1.263,1.263,0,0,1,.957.524,8.551,8.551,0,0,1,1.559,2.709,2.805,2.805,0,0,1,.193.934,1.3,1.3,0,0,1-.672,1.229,1.5,1.5,0,0,1-.717.182q-.956,0-1.2-1.149a14.655,14.655,0,0,0-.911-2.926,1.593,1.593,0,0,1-.159-.648.759.759,0,0,1,.421-.717A1.038,1.038,0,0,1,340.873,197.524Z" transform="translate(-335.262 -193.836)" fill="#fff"/>
          <path id="Path_14" data-name="Path 14" d="M358.409,197.624a6.655,6.655,0,0,1,2.072.5,10.6,10.6,0,0,1,2.675,1.365,1.613,1.613,0,0,1,.739,1.332,1.508,1.508,0,0,1-.341.933,1.373,1.373,0,0,1-1.149.592,1.943,1.943,0,0,1-1.161-.524,23.666,23.666,0,0,0-3.312-2.208,1.128,1.128,0,0,1-.672-.979,1.07,1.07,0,0,1,.148-.535A1.051,1.051,0,0,1,358.409,197.624Zm16.175-.751a1.3,1.3,0,0,1,.649.182,1.064,1.064,0,0,1,.569.979,6.264,6.264,0,0,1-1.07,2.425,20.6,20.6,0,0,1-4.8,5.407,26.013,26.013,0,0,1-8.059,4.439,2.709,2.709,0,0,1-.842.171,1.391,1.391,0,0,1-1.32-.82,1.7,1.7,0,0,1-.206-.785,1.364,1.364,0,0,1,.785-1.275q.114-.057,1.48-.535a23.3,23.3,0,0,0,6.886-3.837,18.349,18.349,0,0,0,4.747-5.486A1.381,1.381,0,0,1,374.584,196.873Zm-13.42-4.406a8.216,8.216,0,0,1,3.449,1.48,9.452,9.452,0,0,1,1.07.729,1.587,1.587,0,0,1,.661,1.264,1.406,1.406,0,0,1-.341.9,1.521,1.521,0,0,1-1.2.614,1.735,1.735,0,0,1-1.2-.626,23.087,23.087,0,0,0-2.971-2.458,1.218,1.218,0,0,1-.6-.945.971.971,0,0,1,.171-.535A1.088,1.088,0,0,1,361.164,192.467Z" transform="translate(-341.217 -192.467)" fill="#fff"/>
        </g>
      </g>
      <g id="Group_12" data-name="Group 12" transform="translate(46.227 0.787)">
        <g id="Group_11" data-name="Group 11">
          <path id="Path_15" data-name="Path 15" d="M290.669,195.332l-.57-2.846a2.658,2.658,0,0,1-.045-.467,1.173,1.173,0,0,1,.615-1.127,1.682,1.682,0,0,1,.842-.2,1.325,1.325,0,0,1,1.411,1.218l.581,2.868q2.811-.592,3.938-.865a2.115,2.115,0,0,1,.546-.08,1.233,1.233,0,0,1,1.184.672,1.517,1.517,0,0,1,.171.706q0,.991-1.149,1.286-.82.2-3.779.808l-.4.079.661,3.221q1.456-.3,6.033-1.263a2.731,2.731,0,0,1,.535-.069,1.2,1.2,0,0,1,1.195.729,1.634,1.634,0,0,1,.137.672,1.211,1.211,0,0,1-.854,1.2,6.763,6.763,0,0,1-.785.193q-1.594.319-5.19,1.082l-.535.114,1.138,5.691a2.084,2.084,0,0,1,.045.456,1.23,1.23,0,0,1-.66,1.195,1.792,1.792,0,0,1-.853.193q-1.139,0-1.4-1.286l-1.116-5.645-.467.1-3.881.831q-2.459.524-2.686.524a1.172,1.172,0,0,1-1.161-.74,1.8,1.8,0,0,1-.137-.717,1.2,1.2,0,0,1,.934-1.2q.137-.046,4.007-.854l2.334-.49.524-.113-.626-3.244-.341.068q-4.121.762-4.621.763-1.274,0-1.275-1.389,0-1.127,1.526-1.343Q288.3,195.787,290.669,195.332Z" transform="translate(-284.032 -190.688)" fill="#fff"/>
          <path id="Path_16" data-name="Path 16" d="M316.269,201.136l-.045-.193-.3-1.23a16.6,16.6,0,0,1-.387-1.764.975.975,0,0,1,.5-.9,1.633,1.633,0,0,1,.842-.228q.956,0,1.206,1.1.046.228.16.705.206.774.432,1.731l.057.216.422-.091q4.154-.978,5.247-1.252a2.679,2.679,0,0,1,.637-.09,1.742,1.742,0,0,1,1.07.33,1.481,1.481,0,0,1,.6,1.252q0,1.3-1.866,3.71-1.355,1.743-2.117,1.742a.836.836,0,0,1-.626-.273.913.913,0,0,1-.273-.626,1.449,1.449,0,0,1,.387-.819,9.792,9.792,0,0,0,1.343-2.208.95.95,0,0,0,.1-.319c0-.083-.046-.125-.137-.125q-.182,0-3.87.9l-.387.091.136.557q1.571,6.342,1.73,6.921a1.906,1.906,0,0,1,.091.535,1.106,1.106,0,0,1-.683,1.082,1.539,1.539,0,0,1-.694.148,1.1,1.1,0,0,1-1.093-.785q-.035-.1-1.138-4.6l-.649-2.641-.148-.615q-.569.137-1.377.353a22.016,22.016,0,0,1-2.652.592,1.025,1.025,0,0,1-.808-.319,1.3,1.3,0,0,1-.319-.91q0-.968,1.263-1.23Q314.448,201.58,316.269,201.136Z" transform="translate(-291.514 -192.349)" fill="#fff"/>
        </g>
      </g>
    </g>
  </g>
</svg>
